<svg width="32" height="32" viewBox="0 0 32 32" fill="none" xmlns="http://www.w3.org/2000/svg">
<path d="M18.4215 1H13.2445C12.4259 1.00002 11.6361 1.30175 11.0259 1.8475C10.4158 2.39324 10.0282 3.14472 9.93721 3.95825H7.32803C6.44538 3.95825 5.59889 4.30888 4.97476 4.93301C4.35063 5.55714 4 6.40364 4 7.28628V27.2545C4 28.1371 4.35063 28.9836 4.97476 29.6078C5.59889 30.2319 6.44538 30.5825 7.32803 30.5825H24.338C24.775 30.5825 25.2078 30.4964 25.6116 30.3292C26.0153 30.1619 26.3822 29.9168 26.6913 29.6078C27.0003 29.2987 27.2454 28.9318 27.4127 28.5281C27.5799 28.1243 27.666 27.6915 27.666 27.2545V7.28628C27.666 6.84924 27.5799 6.41648 27.4127 6.0127C27.2454 5.60893 27.0003 5.24205 26.6913 4.93301C26.3822 4.62397 26.0153 4.37883 25.6116 4.21158C25.2078 4.04433 24.775 3.95825 24.338 3.95825H21.7288C21.6378 3.14472 21.2502 2.39324 20.6401 1.8475C20.03 1.30175 19.2401 1.00002 18.4215 1ZM13.2445 3.21869H18.4215C18.7157 3.21869 18.9979 3.33557 19.2059 3.54361C19.4139 3.75165 19.5308 4.03382 19.5308 4.32803C19.5308 4.62225 19.4139 4.90442 19.2059 5.11246C18.9979 5.3205 18.7157 5.43738 18.4215 5.43738H13.2445C12.9503 5.43738 12.6682 5.3205 12.4601 5.11246C12.2521 4.90442 12.1352 4.62225 12.1352 4.32803C12.1352 4.03382 12.2521 3.75165 12.4601 3.54361C12.6682 3.33557 12.9503 3.21869 13.2445 3.21869ZM16.5726 13.2028C16.5726 12.9086 16.6894 12.6264 16.8975 12.4184C17.1055 12.2103 17.3877 12.0934 17.6819 12.0934H22.8589C23.1531 12.0934 23.4352 12.2103 23.6433 12.4184C23.8513 12.6264 23.9682 12.9086 23.9682 13.2028C23.9682 13.497 23.8513 13.7792 23.6433 13.9872C23.4352 14.1953 23.1531 14.3121 22.8589 14.3121H17.6819C17.3877 14.3121 17.1055 14.1953 16.8975 13.9872C16.6894 13.7792 16.5726 13.497 16.5726 13.2028ZM17.6819 20.2286H22.8589C23.1531 20.2286 23.4352 20.3455 23.6433 20.5536C23.8513 20.7616 23.9682 21.0438 23.9682 21.338C23.9682 21.6322 23.8513 21.9144 23.6433 22.1224C23.4352 22.3304 23.1531 22.4473 22.8589 22.4473H17.6819C17.3877 22.4473 17.1055 22.3304 16.8975 22.1224C16.6894 21.9144 16.5726 21.6322 16.5726 21.338C16.5726 21.0438 16.6894 20.7616 16.8975 20.5536C17.1055 20.3455 17.3877 20.2286 17.6819 20.2286ZM14.0285 12.5076L11.0702 15.4659C10.8622 15.6736 10.5803 15.7903 10.2863 15.7903C9.99231 15.7903 9.71035 15.6736 9.50235 15.4659L8.02322 13.9867C7.91423 13.8852 7.82681 13.7627 7.76618 13.6266C7.70555 13.4905 7.67294 13.3436 7.67032 13.1947C7.66769 13.0457 7.69509 12.8978 7.75088 12.7596C7.80668 12.6215 7.88972 12.496 7.99506 12.3907C8.1004 12.2854 8.22588 12.2023 8.36402 12.1465C8.50215 12.0907 8.65011 12.0633 8.79906 12.0659C8.94801 12.0686 9.09491 12.1012 9.23099 12.1618C9.36706 12.2224 9.48954 12.3099 9.5911 12.4189L10.2863 13.114L12.4606 10.9397C12.5622 10.8307 12.6846 10.7433 12.8207 10.6827C12.9568 10.622 13.1037 10.5894 13.2526 10.5868C13.4016 10.5842 13.5495 10.6116 13.6877 10.6674C13.8258 10.7232 13.9513 10.8062 14.0566 10.9116C14.162 11.0169 14.245 11.1424 14.3008 11.2805C14.3566 11.4187 14.384 11.5666 14.3814 11.7156C14.3788 11.8645 14.3462 12.0114 14.2855 12.1475C14.2249 12.2836 14.1375 12.406 14.0285 12.5076ZM14.0285 19.0749C14.2362 19.2829 14.3529 19.5649 14.3529 19.8589C14.3529 20.1528 14.2362 20.4348 14.0285 20.6428L11.0702 23.601C10.8622 23.8088 10.5803 23.9255 10.2863 23.9255C9.99231 23.9255 9.71035 23.8088 9.50235 23.601L8.02322 22.1219C7.91423 22.0204 7.82681 21.8979 7.76618 21.7618C7.70555 21.6257 7.67294 21.4788 7.67032 21.3299C7.66769 21.1809 7.69509 21.033 7.75088 20.8948C7.80668 20.7567 7.88972 20.6312 7.99506 20.5259C8.1004 20.4205 8.22588 20.3375 8.36402 20.2817C8.50215 20.2259 8.65011 20.1985 8.79906 20.2011C8.94801 20.2038 9.09491 20.2364 9.23099 20.297C9.36706 20.3576 9.48954 20.4451 9.5911 20.554L10.2863 21.2492L12.4606 19.0749C12.6686 18.8672 12.9506 18.7505 13.2445 18.7505C13.5385 18.7505 13.8205 18.8672 14.0285 19.0749Z" fill="#DAECF8"/>
</svg>
