<svg width="32" height="32" viewBox="0 0 32 32" fill="none" xmlns="http://www.w3.org/2000/svg">
<path d="M14.32 3.25871C14.7951 2.8733 15.3882 2.66296 16 2.66296C16.6118 2.66296 17.2049 2.8733 17.68 3.25871L27.8507 11.4987C28.3131 11.8732 28.6862 12.3462 28.9427 12.8832C29.1992 13.4202 29.3327 14.0076 29.3333 14.6027V26.6667C29.3333 27.374 29.0524 28.0522 28.5523 28.5523C28.0522 29.0524 27.3739 29.3334 26.6667 29.3334H22.6667C21.9594 29.3334 21.2812 29.0524 20.7811 28.5523C20.281 28.0522 20 27.374 20 26.6667V20C20 19.6464 19.8595 19.3073 19.6095 19.0572C19.3594 18.8072 19.0203 18.6667 18.6667 18.6667H13.3333C12.9797 18.6667 12.6406 18.8072 12.3905 19.0572C12.1405 19.3073 12 19.6464 12 20V26.6667C12 27.374 11.7191 28.0522 11.219 28.5523C10.7189 29.0524 10.0406 29.3334 9.33334 29.3334H5.33334C4.62609 29.3334 3.94782 29.0524 3.44772 28.5523C2.94762 28.0522 2.66667 27.374 2.66667 26.6667V14.6054C2.66655 14.0094 2.79962 13.4209 3.05615 12.8829C3.31267 12.345 3.68617 11.8711 4.14934 11.496L14.32 3.25871Z" fill="url(#paint0_linear_1015_12856)"/>
<defs>
<linearGradient id="paint0_linear_1015_12856" x1="16" y1="2.66296" x2="16" y2="29.3334" gradientUnits="userSpaceOnUse">
<stop stop-color="#53A2D2"/>
<stop offset="1" stop-color="#0077BD"/>
</linearGradient>
</defs>
</svg>
