<svg width="32" height="32" viewBox="0 0 32 32" fill="none" xmlns="http://www.w3.org/2000/svg">
<path d="M16 12.736L11.1536 10.8L23.1536 6L27.2912 7.6544C27.5 7.73752 27.6961 7.84955 27.8736 7.9872L16 12.736ZM28.744 9.3648C28.7814 9.53453 28.8001 9.70781 28.8 9.8816V22.1152C28.8001 22.595 28.6564 23.0637 28.3875 23.461C28.1185 23.8583 27.7367 24.1659 27.2912 24.344L18.08 28.0288C17.663 28.1952 17.2363 28.3093 16.8 28.3712V14.1408L28.744 9.3648ZM15.2 28.3728C14.7613 28.3097 14.3317 28.1948 13.92 28.0304L4.70885 24.3456C4.26314 24.1673 3.88113 23.8595 3.61217 23.4619C3.3432 23.0643 3.19965 22.5952 3.20005 22.1152V9.8816C3.20005 9.70453 3.21871 9.53173 3.25605 9.3632L15.2 14.1408V28.3728ZM4.12645 7.9888L9.00005 9.9392L21 5.1392L18.08 3.968C16.7448 3.43384 15.2553 3.43384 13.92 3.968L4.70885 7.6528C4.50009 7.73592 4.30405 7.84795 4.12645 7.9856" fill="url(#paint0_linear_1025_2693)"/>
<defs>
<linearGradient id="paint0_linear_1025_2693" x1="16" y1="3.56738" x2="16" y2="28.3728" gradientUnits="userSpaceOnUse">
<stop stop-color="#53A2D2"/>
<stop offset="1" stop-color="#0077BD"/>
</linearGradient>
</defs>
</svg>
