<svg width="22" height="22" viewBox="0 0 22 22" fill="none" xmlns="http://www.w3.org/2000/svg">
<path d="M11.6842 2.37615C11.3702 2.12143 10.9782 1.98242 10.5739 1.98242C10.1696 1.98242 9.77754 2.12143 9.46356 2.37615L2.74186 7.82189C2.43621 8.0694 2.18965 8.38199 2.02013 8.73688C1.85062 9.09176 1.76242 9.48 1.76197 9.8733V17.8463C1.76197 18.3137 1.94765 18.762 2.27816 19.0925C2.60867 19.423 3.05694 19.6087 3.52435 19.6087H6.16792C6.63533 19.6087 7.08359 19.423 7.4141 19.0925C7.74461 18.762 7.93029 18.3137 7.93029 17.8463V13.4403C7.93029 13.2066 8.02313 12.9825 8.18839 12.8173C8.35364 12.652 8.57778 12.5592 8.81148 12.5592H12.3362C12.5699 12.5592 12.7941 12.652 12.9593 12.8173C13.1246 12.9825 13.2174 13.2066 13.2174 13.4403V17.8463C13.2174 18.3137 13.4031 18.762 13.7336 19.0925C14.0641 19.423 14.5124 19.6087 14.9798 19.6087H17.6234C18.0908 19.6087 18.539 19.423 18.8696 19.0925C19.2001 18.762 19.3857 18.3137 19.3857 17.8463V9.87506C19.3858 9.48117 19.2979 9.09224 19.1283 8.73671C18.9588 8.38117 18.712 8.06801 18.4059 7.82013L11.6842 2.37615Z" fill="#E0EFF9"/>
</svg>
