<svg width="22" height="22" viewBox="0 0 22 22" fill="none" xmlns="http://www.w3.org/2000/svg">
<path d="M10.5737 8.41688L13.7766 7.1374L5.84591 3.96512L3.11141 5.05849C2.97345 5.11343 2.84388 5.18747 2.72651 5.27844L10.5737 8.41688ZM2.15127 6.18888C2.1266 6.30106 2.11419 6.41558 2.11426 6.53043V14.6155C2.11421 14.9326 2.20918 15.2424 2.38692 15.5049C2.56466 15.7675 2.81702 15.9708 3.11141 16.0885L9.19901 18.5238C9.47465 18.6337 9.75663 18.7092 10.045 18.7501V9.3453L2.15127 6.18888ZM11.1024 18.7511C11.3923 18.7094 11.6763 18.6335 11.9483 18.5248L18.0359 16.0896C18.3305 15.9718 18.583 15.7683 18.7607 15.5056C18.9385 15.2428 19.0333 14.9328 19.0331 14.6155V6.53043C19.0331 6.41341 19.0207 6.29921 18.9961 6.18783L11.1024 9.3453V18.7511ZM18.4208 5.2795L15.1999 6.5685L7.26921 3.39622L9.19901 2.62219C10.0815 2.26917 11.0659 2.26917 11.9483 2.62219L18.0359 5.05744C18.1739 5.11237 18.3035 5.18641 18.4208 5.27738" fill="#E0EFF9"/>
</svg>
