<svg width="40" height="40" viewBox="0 0 40 40" fill="none" xmlns="http://www.w3.org/2000/svg">
<path d="M12 25.8331C12.0431 22.1775 13.5144 18.6837 16.0995 16.0986C18.6846 13.5135 22.1784 12.0422 25.834 11.9991C25.3245 9.03901 23.7238 6.37744 21.3478 4.53984C18.9719 2.70224 15.9933 1.82215 13.0002 2.07332C10.007 2.32448 7.21681 3.68865 5.18031 5.89651C3.14382 8.10438 2.00904 10.9954 2 13.9991C1.99957 16.8353 3.00369 19.5799 4.83425 21.7462C6.66482 23.9125 9.20351 25.3604 12 25.8331ZM18.708 9.29315C18.8955 9.48067 19.0008 9.73498 19.0008 10.0001C19.0008 10.2653 18.8955 10.5196 18.708 10.7071L12.708 16.7071C12.6151 16.8002 12.5048 16.8741 12.3833 16.9245C12.2618 16.9749 12.1315 17.0009 12 17.0009C11.8685 17.0009 11.7382 16.9749 11.6167 16.9245C11.4952 16.8741 11.3849 16.8002 11.292 16.7071L8.292 13.7071C8.19902 13.6141 8.12527 13.5037 8.07495 13.3823C8.02463 13.2608 7.99874 13.1306 7.99874 12.9991C7.99874 12.8676 8.02463 12.7374 8.07495 12.6159C8.12527 12.4945 8.19902 12.3841 8.292 12.2911C8.38498 12.1981 8.49535 12.1244 8.61683 12.0741C8.73831 12.0237 8.86851 11.9978 9 11.9978C9.13149 11.9978 9.26169 12.0237 9.38317 12.0741C9.50465 12.1244 9.61502 12.1981 9.708 12.2911L12 14.5851L17.292 9.29115C17.3849 9.19802 17.4952 9.12413 17.6167 9.07372C17.7382 9.02331 17.8685 8.99736 18 8.99736C18.1315 8.99736 18.2618 9.02331 18.3833 9.07372C18.5048 9.12413 18.6151 9.20002 18.708 9.29315ZM26 37.9991C29.1826 37.9991 32.2348 36.7348 34.4853 34.4844C36.7357 32.2339 38 29.1817 38 25.9991C38 22.8165 36.7357 19.7643 34.4853 17.5138C32.2348 15.2634 29.1826 13.9991 26 13.9991C22.8174 13.9991 19.7652 15.2634 17.5147 17.5138C15.2643 19.7643 14 22.8165 14 25.9991C14 29.1817 15.2643 32.2339 17.5147 34.4844C19.7652 36.7348 22.8174 37.9991 26 37.9991ZM22.708 21.2911L26 24.5851L29.292 21.2911C29.4798 21.1033 29.7344 20.9978 30 20.9978C30.2656 20.9978 30.5202 21.1033 30.708 21.2911C30.8958 21.4789 31.0013 21.7335 31.0013 21.9991C31.0013 22.2646 30.8958 22.5193 30.708 22.7071L27.414 25.9991L30.708 29.2911C30.8958 29.4789 31.0013 29.7335 31.0013 29.9991C31.0013 30.2646 30.8958 30.5193 30.708 30.7071C30.5202 30.8949 30.2656 31.0004 30 31.0004C29.7344 31.0004 29.4798 30.8949 29.292 30.7071L26 27.4131L22.708 30.7071C22.5202 30.8949 22.2656 31.0004 22 31.0004C21.7344 31.0004 21.4798 30.8949 21.292 30.7071C21.1042 30.5193 20.9987 30.2646 20.9987 29.9991C20.9987 29.7335 21.1042 29.4789 21.292 29.2911L24.586 25.9991L21.292 22.7071C21.199 22.6141 21.1253 22.5037 21.075 22.3823C21.0246 22.2608 20.9987 22.1306 20.9987 21.9991C20.9987 21.8676 21.0246 21.7374 21.075 21.6159C21.1253 21.4944 21.199 21.3841 21.292 21.2911C21.385 21.1981 21.4954 21.1244 21.6168 21.074C21.7383 21.0237 21.8685 20.9978 22 20.9978C22.1315 20.9978 22.2617 21.0237 22.3832 21.074C22.5046 21.1244 22.615 21.1981 22.708 21.2911Z" fill="#D2E7F7"/>
</svg>
