<svg width="36" height="36" viewBox="0 0 36 36" fill="none" xmlns="http://www.w3.org/2000/svg">
<path d="M13.1425 2.92078H4.38058C3.99327 2.92078 3.62184 3.07463 3.34797 3.34849C3.07411 3.62236 2.92026 3.99379 2.92026 4.38109V13.143C2.92026 13.5303 3.07411 13.9017 3.34797 14.1756C3.62184 14.4495 3.99327 14.6033 4.38058 14.6033H13.1425C13.5298 14.6033 13.9012 14.4495 14.1751 14.1756C14.4489 13.9017 14.6028 13.5303 14.6028 13.143V4.38109C14.6028 3.99379 14.4489 3.62236 14.1751 3.34849C13.9012 3.07463 13.5298 2.92078 13.1425 2.92078ZM13.1425 20.4446H4.38058C3.99327 20.4446 3.62184 20.5984 3.34797 20.8723C3.07411 21.1462 2.92026 21.5176 2.92026 21.9049V30.6668C2.92026 31.0541 3.07411 31.4255 3.34797 31.6994C3.62184 31.9733 3.99327 32.1271 4.38058 32.1271H13.1425C13.5298 32.1271 13.9012 31.9733 14.1751 31.6994C14.4489 31.4255 14.6028 31.0541 14.6028 30.6668V21.9049C14.6028 21.5176 14.4489 21.1462 14.1751 20.8723C13.9012 20.5984 13.5298 20.4446 13.1425 20.4446ZM30.6663 2.92078H21.9044C21.5171 2.92078 21.1456 3.07463 20.8718 3.34849C20.5979 3.62236 20.4441 3.99379 20.4441 4.38109V13.143C20.4441 13.5303 20.5979 13.9017 20.8718 14.1756C21.1456 14.4495 21.5171 14.6033 21.9044 14.6033H30.6663C31.0536 14.6033 31.425 14.4495 31.6989 14.1756C31.9728 13.9017 32.1266 13.5303 32.1266 13.143V4.38109C32.1266 3.99379 31.9728 3.62236 31.6989 3.34849C31.425 3.07463 31.0536 2.92078 30.6663 2.92078Z" fill="#E0EFF9" stroke="#E0EFF9" stroke-width="2.19048" stroke-linejoin="round"/>
<path d="M20.4437 20.4447H32.1263M26.285 26.286H32.1263M20.4437 32.1272H32.1263" stroke="#E0EFF9" stroke-width="2.19048" stroke-linecap="round" stroke-linejoin="round"/>
</svg>
