<svg width="32" height="32" viewBox="0 0 32 32" fill="none" xmlns="http://www.w3.org/2000/svg">
<path fill-rule="evenodd" clip-rule="evenodd" d="M13.5173 2.42002C14.1146 2.24087 14.7454 2.2038 15.3595 2.3118C15.9736 2.41979 16.5539 2.66984 17.0542 3.04199C17.5544 3.41415 17.9608 3.8981 18.2407 4.45521C18.5207 5.01233 18.6666 5.62718 18.6667 6.25069V25.7494C18.6666 26.3729 18.5207 26.9877 18.2407 27.5448C17.9608 28.1019 17.5544 28.5859 17.0542 28.958C16.5539 29.3302 15.9736 29.5803 15.3595 29.6882C14.7454 29.7962 14.1146 29.7592 13.5173 29.58L5.51734 27.18C4.69347 26.9329 3.97122 26.4267 3.45771 25.7367C2.94421 25.0467 2.66681 24.2095 2.66667 23.3494V8.65069C2.66681 7.79055 2.94421 6.95337 3.45771 6.26333C3.97122 5.5733 4.69347 5.06717 5.51734 4.82002L13.5173 2.42002ZM20 5.33335C20 4.97973 20.1405 4.64059 20.3905 4.39054C20.6406 4.1405 20.9797 4.00002 21.3333 4.00002H25.3333C26.3942 4.00002 27.4116 4.42145 28.1618 5.17159C28.9119 5.92174 29.3333 6.93915 29.3333 8.00002V9.33335C29.3333 9.68698 29.1929 10.0261 28.9428 10.2762C28.6928 10.5262 28.3536 10.6667 28 10.6667C27.6464 10.6667 27.3072 10.5262 27.0572 10.2762C26.8071 10.0261 26.6667 9.68698 26.6667 9.33335V8.00002C26.6667 7.6464 26.5262 7.30726 26.2761 7.05721C26.0261 6.80716 25.687 6.66669 25.3333 6.66669H21.3333C20.9797 6.66669 20.6406 6.52621 20.3905 6.27616C20.1405 6.02611 20 5.68698 20 5.33335ZM28 21.3334C28.3536 21.3334 28.6928 21.4738 28.9428 21.7239C29.1929 21.9739 29.3333 22.3131 29.3333 22.6667V24C29.3333 25.0609 28.9119 26.0783 28.1618 26.8284C27.4116 27.5786 26.3942 28 25.3333 28H21.3333C20.9797 28 20.6406 27.8595 20.3905 27.6095C20.1405 27.3594 20 27.0203 20 26.6667C20 26.3131 20.1405 25.9739 20.3905 25.7239C20.6406 25.4738 20.9797 25.3334 21.3333 25.3334H25.3333C25.687 25.3334 26.0261 25.1929 26.2761 24.9428C26.5262 24.6928 26.6667 24.3536 26.6667 24V22.6667C26.6667 22.3131 26.8071 21.9739 27.0572 21.7239C27.3072 21.4738 27.6464 21.3334 28 21.3334ZM12 14.6667C11.6464 14.6667 11.3072 14.8072 11.0572 15.0572C10.8071 15.3073 10.6667 15.6464 10.6667 16C10.6667 16.3536 10.8071 16.6928 11.0572 16.9428C11.3072 17.1929 11.6464 17.3334 12 17.3334H12.0013C12.355 17.3334 12.6941 17.1929 12.9441 16.9428C13.1942 16.6928 13.3347 16.3536 13.3347 16C13.3347 15.6464 13.1942 15.3073 12.9441 15.0572C12.6941 14.8072 12.355 14.6667 12.0013 14.6667H12Z" fill="url(#paint0_linear_1015_12872)"/>
<path d="M21.3333 16H28M28 16L25.3333 13.3334M28 16L25.3333 18.6667" stroke="url(#paint1_linear_1015_12872)" stroke-width="2" stroke-linecap="round" stroke-linejoin="round"/>
<defs>
<linearGradient id="paint0_linear_1015_12872" x1="16" y1="2.25134" x2="16" y2="29.7487" gradientUnits="userSpaceOnUse">
<stop stop-color="#53A2D2"/>
<stop offset="1" stop-color="#0077BD"/>
</linearGradient>
<linearGradient id="paint1_linear_1015_12872" x1="24.6667" y1="13.3334" x2="24.6667" y2="18.6667" gradientUnits="userSpaceOnUse">
<stop stop-color="#53A2D2"/>
<stop offset="1" stop-color="#0077BD"/>
</linearGradient>
</defs>
</svg>
