<svg width="21" height="21" viewBox="0 0 21 21" fill="none" xmlns="http://www.w3.org/2000/svg">
<path fill-rule="evenodd" clip-rule="evenodd" d="M8.87075 1.58823C9.26267 1.47066 9.67665 1.44634 10.0796 1.51721C10.4826 1.58808 10.8635 1.75218 11.1918 1.9964C11.5201 2.24063 11.7867 2.55822 11.9705 2.92383C12.1542 3.28943 12.2499 3.69293 12.25 4.10211V16.8981C12.2499 17.3073 12.1542 17.7108 11.9705 18.0764C11.7867 18.442 11.5201 18.7596 11.1918 19.0038C10.8635 19.248 10.4826 19.4121 10.0796 19.483C9.67665 19.5539 9.26267 19.5296 8.87075 19.412L3.62075 17.837C3.08009 17.6748 2.60611 17.3426 2.26912 16.8898C1.93213 16.437 1.75009 15.8876 1.75 15.3231V5.67711C1.75009 5.11264 1.93213 4.56324 2.26912 4.11041C2.60611 3.65757 3.08009 3.32542 3.62075 3.16323L8.87075 1.58823ZM13.125 3.50011C13.125 3.26804 13.2172 3.04548 13.3813 2.88139C13.5454 2.7173 13.7679 2.62511 14 2.62511H16.625C17.3212 2.62511 17.9889 2.90167 18.4812 3.39395C18.9734 3.88624 19.25 4.55392 19.25 5.25011V6.12511C19.25 6.35717 19.1578 6.57973 18.9937 6.74383C18.8296 6.90792 18.6071 7.00011 18.375 7.00011C18.1429 7.00011 17.9204 6.90792 17.7563 6.74383C17.5922 6.57973 17.5 6.35717 17.5 6.12511V5.25011C17.5 5.01804 17.4078 4.79548 17.2437 4.63139C17.0796 4.4673 16.8571 4.37511 16.625 4.37511H14C13.7679 4.37511 13.5454 4.28292 13.3813 4.11883C13.2172 3.95473 13.125 3.73217 13.125 3.50011ZM18.375 14.0001C18.6071 14.0001 18.8296 14.0923 18.9937 14.2564C19.1578 14.4205 19.25 14.643 19.25 14.8751V15.7501C19.25 16.4463 18.9734 17.114 18.4812 17.6063C17.9889 18.0985 17.3212 18.3751 16.625 18.3751H14C13.7679 18.3751 13.5454 18.2829 13.3813 18.1188C13.2172 17.9547 13.125 17.7322 13.125 17.5001C13.125 17.268 13.2172 17.0455 13.3813 16.8814C13.5454 16.7173 13.7679 16.6251 14 16.6251H16.625C16.8571 16.6251 17.0796 16.5329 17.2437 16.3688C17.4078 16.2047 17.5 15.9822 17.5 15.7501V14.8751C17.5 14.643 17.5922 14.4205 17.7563 14.2564C17.9204 14.0923 18.1429 14.0001 18.375 14.0001ZM7.875 9.62511C7.64294 9.62511 7.42038 9.7173 7.25628 9.88139C7.09219 10.0455 7 10.268 7 10.5001C7 10.7322 7.09219 10.9547 7.25628 11.1188C7.42038 11.2829 7.64294 11.3751 7.875 11.3751H7.87588C8.10794 11.3751 8.3305 11.2829 8.49459 11.1188C8.65869 10.9547 8.75088 10.7322 8.75088 10.5001C8.75088 10.268 8.65869 10.0455 8.49459 9.88139C8.3305 9.7173 8.10794 9.62511 7.87588 9.62511H7.875Z" fill="white"/>
<path d="M14 10.5H18.375ZM18.375 10.5L16.625 8.75ZM18.375 10.5L16.625 12.25Z" fill="white"/>
<path d="M14 10.5H18.375M18.375 10.5L16.625 8.75M18.375 10.5L16.625 12.25" stroke="url(#paint0_linear_1042_2683)" stroke-width="2" stroke-linecap="round" stroke-linejoin="round"/>
<defs>
<linearGradient id="paint0_linear_1042_2683" x1="16.1875" y1="8.75" x2="16.1875" y2="12.25" gradientUnits="userSpaceOnUse">
<stop stop-color="#53A2D2"/>
<stop offset="1" stop-color="#0077BD"/>
</linearGradient>
</defs>
</svg>
