<svg width="32" height="32" viewBox="0 0 32 32" fill="none" xmlns="http://www.w3.org/2000/svg">
<path d="M21.3333 24C22.0889 24 22.7169 23.7777 23.2173 23.3333C23.7178 22.8889 23.9787 22.2222 24 21.3333C24.0222 20.5777 23.7724 19.9444 23.2507 19.4333C22.7289 18.9222 22.0898 18.6666 21.3333 18.6666C20.5769 18.6666 19.9436 18.9222 19.4333 19.4333C18.9231 19.9444 18.6676 20.5777 18.6667 21.3333C18.6658 22.0889 18.9213 22.7222 19.4333 23.2333C19.9453 23.7444 20.5787 24 21.3333 24ZM21.3333 26.6666C19.8667 26.6666 18.6111 26.1444 17.5667 25.1C16.5222 24.0555 16 22.8 16 21.3333C16 19.8666 16.5222 18.6111 17.5667 17.5666C18.6111 16.5222 19.8667 16 21.3333 16C22.8 16 24.0556 16.5222 25.1 17.5666C26.1444 18.6111 26.6667 19.8666 26.6667 21.3333C26.6667 21.8444 26.6058 22.328 26.484 22.784C26.3622 23.24 26.1787 23.6675 25.9333 24.0666L28.4 26.5333C28.6444 26.7777 28.7667 27.0889 28.7667 27.4666C28.7667 27.8444 28.6444 28.1555 28.4 28.4C28.1556 28.6444 27.8444 28.7666 27.4667 28.7666C27.0889 28.7666 26.7778 28.6444 26.5333 28.4L24.0667 25.9333C23.6667 26.1777 23.2391 26.3613 22.784 26.484C22.3289 26.6066 21.8453 26.6675 21.3333 26.6666ZM5.8 27.6C5.35556 27.7777 4.94444 27.728 4.56667 27.4506C4.18889 27.1733 4 26.8009 4 26.3333V7.66663C4 7.37775 4.08356 7.12219 4.25067 6.89997C4.41778 6.67775 4.64533 6.51108 4.93333 6.39997L11.1333 4.29997C11.4222 4.18886 11.7111 4.1333 12 4.1333C12.2889 4.1333 12.5778 4.18886 12.8667 4.29997L20 6.79997L26.2 4.39997C26.6444 4.22219 27.0556 4.27241 27.4333 4.55063C27.8111 4.82886 28 5.20086 28 5.66663V14.6666C28 15.0444 27.8222 15.3 27.4667 15.4333C27.1111 15.5666 26.7889 15.5 26.5 15.2333C25.7667 14.6111 24.9613 14.1386 24.084 13.816C23.2067 13.4933 22.2898 13.3324 21.3333 13.3333H20.7667C20.5667 13.3333 20.3778 13.3555 20.2 13.4C19.8 13.4444 19.4444 13.3497 19.1333 13.116C18.8222 12.8822 18.6667 12.5769 18.6667 12.2V9.1333L13.3333 7.26663V23.3C13.3333 23.7222 13.2169 24.1 12.984 24.4333C12.7511 24.7666 12.4453 25.0111 12.0667 25.1666L5.8 27.6Z" fill="url(#paint0_linear_1015_12865)"/>
<defs>
<linearGradient id="paint0_linear_1015_12865" x1="16.3833" y1="4.1333" x2="16.3833" y2="28.7666" gradientUnits="userSpaceOnUse">
<stop stop-color="#53A2D2"/>
<stop offset="1" stop-color="#0077BD"/>
</linearGradient>
</defs>
</svg>
