<svg width="22" height="22" viewBox="0 0 22 22" fill="none" xmlns="http://www.w3.org/2000/svg">
<path d="M7.04968 15.8612C6.55034 15.8612 6.1353 15.7143 5.80456 15.4206C5.47382 15.1268 5.3014 14.6862 5.2873 14.0988C5.27262 13.5994 5.43769 13.1809 5.78253 12.8431C6.12737 12.5053 6.54975 12.3364 7.04968 12.3364C7.54961 12.3364 7.96817 12.5053 8.30537 12.8431C8.64257 13.1809 8.81147 13.5994 8.81206 14.0988C8.81264 14.5981 8.64375 15.0167 8.30537 15.3545C7.967 15.6923 7.54843 15.8612 7.04968 15.8612ZM7.04968 17.6235C8.01899 17.6235 8.84877 17.2784 9.53904 16.5881C10.2293 15.8979 10.5744 15.0681 10.5744 14.0988C10.5744 13.1295 10.2293 12.2997 9.53904 11.6094C8.84877 10.9192 8.01899 10.574 7.04968 10.574C6.08037 10.574 5.25059 10.9192 4.56032 11.6094C3.87006 12.2997 3.52493 13.1295 3.52493 14.0988C3.52493 14.4366 3.56517 14.7561 3.64565 15.0575C3.72613 15.3589 3.84744 15.6414 4.00958 15.9052L2.37938 17.5354C2.21783 17.697 2.13705 17.9026 2.13705 18.1522C2.13705 18.4019 2.21783 18.6075 2.37938 18.7691C2.54093 18.9306 2.74654 19.0114 2.99621 19.0114C3.24588 19.0114 3.45149 18.9306 3.61304 18.7691L5.24324 17.1389C5.5076 17.3004 5.79017 17.4217 6.09095 17.5028C6.39173 17.5839 6.7113 17.6241 7.04968 17.6235ZM17.3155 18.2404C17.6093 18.3579 17.881 18.325 18.1306 18.1417C18.3803 17.9584 18.5051 17.7122 18.5051 17.4032V5.06659C18.5051 4.87567 18.4499 4.70678 18.3395 4.55991C18.229 4.41305 18.0786 4.3029 17.8883 4.22947L13.7908 2.84159C13.5998 2.76816 13.4089 2.73145 13.218 2.73145C13.0271 2.73145 12.8361 2.76816 12.6452 2.84159L7.93087 4.49382L3.83334 2.90768C3.53961 2.79019 3.26791 2.82338 3.01824 3.00726C2.76857 3.19113 2.64374 3.43698 2.64374 3.74481V9.69283C2.64374 9.9425 2.76123 10.1114 2.99621 10.1995C3.2312 10.2876 3.44415 10.2436 3.63507 10.0673C4.11973 9.65612 4.65197 9.34388 5.23179 9.13064C5.81161 8.91739 6.41757 8.81106 7.04968 8.81164H7.42418C7.55636 8.81164 7.6812 8.82633 7.79869 8.8557C8.06305 8.88508 8.29803 8.82251 8.50364 8.66801C8.70925 8.51351 8.81206 8.31172 8.81206 8.06263V6.0359L12.3368 4.80224V15.3985C12.3368 15.6776 12.4138 15.9272 12.5677 16.1475C12.7216 16.3678 12.9237 16.5294 13.1739 16.6322L17.3155 18.2404Z" fill="#E0EFF9"/>
</svg>

