<svg width="40" height="40" viewBox="0 0 40 40" fill="none" xmlns="http://www.w3.org/2000/svg">
<path d="M13.3333 23.3334C12.8611 23.3334 12.4656 23.1734 12.1467 22.8534C11.8278 22.5334 11.6678 22.1378 11.6667 21.6667C11.6656 21.1956 11.8256 20.8 12.1467 20.48C12.4678 20.16 12.8633 20 13.3333 20C13.8033 20 14.1994 20.16 14.5217 20.48C14.8439 20.8 15.0033 21.1956 15 21.6667C14.9967 22.1378 14.8367 22.5339 14.52 22.855C14.2033 23.1762 13.8078 23.3356 13.3333 23.3334ZM20 23.3334C19.5278 23.3334 19.1322 23.1734 18.8133 22.8534C18.4944 22.5334 18.3344 22.1378 18.3333 21.6667C18.3322 21.1956 18.4922 20.8 18.8133 20.48C19.1344 20.16 19.53 20 20 20C20.47 20 20.8661 20.16 21.1883 20.48C21.5106 20.8 21.67 21.1956 21.6667 21.6667C21.6633 22.1378 21.5033 22.5339 21.1867 22.855C20.87 23.1762 20.4744 23.3356 20 23.3334ZM26.6667 23.3334C26.1944 23.3334 25.7989 23.1734 25.48 22.8534C25.1611 22.5334 25.0011 22.1378 25 21.6667C24.9989 21.1956 25.1589 20.8 25.48 20.48C25.8011 20.16 26.1967 20 26.6667 20C27.1367 20 27.5328 20.16 27.855 20.48C28.1772 20.8 28.3367 21.1956 28.3333 21.6667C28.33 22.1378 28.17 22.5339 27.8533 22.855C27.5367 23.1762 27.1411 23.3356 26.6667 23.3334ZM8.33333 36.6667C7.41667 36.6667 6.63222 36.3406 5.98 35.6884C5.32778 35.0362 5.00111 34.2512 5 33.3334V10C5 9.08337 5.32667 8.29893 5.98 7.64671C6.63333 6.99448 7.41778 6.66782 8.33333 6.66671H10V3.33337H13.3333V6.66671H26.6667V3.33337H30V6.66671H31.6667C32.5833 6.66671 33.3683 6.99337 34.0217 7.64671C34.675 8.30004 35.0011 9.08448 35 10V33.3334C35 34.25 34.6739 35.035 34.0217 35.6884C33.3694 36.3417 32.5844 36.6678 31.6667 36.6667H8.33333ZM8.33333 33.3334H31.6667V16.6667H8.33333V33.3334Z" fill="#0177BE"/>
</svg>
