<svg width="22" height="22" viewBox="0 0 22 22" fill="none" xmlns="http://www.w3.org/2000/svg">
<path d="M12.3362 3.52441C13.2711 3.52441 14.1676 3.89577 14.8286 4.55679C15.4896 5.21781 15.861 6.11434 15.861 7.04917C15.861 7.98399 15.4896 8.88053 14.8286 9.54154C14.1676 10.2026 13.2711 10.5739 12.3362 10.5739C11.4014 10.5739 10.5049 10.2026 9.84386 9.54154C9.18284 8.88053 8.81148 7.98399 8.81148 7.04917C8.81148 6.11434 9.18284 5.21781 9.84386 4.55679C10.5049 3.89577 11.4014 3.52441 12.3362 3.52441ZM6.16792 10.5739C6.22176 10.5729 6.27424 10.5909 6.31614 10.6248C6.35804 10.6586 6.38668 10.7061 6.39703 10.759L6.56445 11.9221C6.82881 12.0367 7.08435 12.1777 7.31346 12.3363L8.40613 11.8957C8.50307 11.8957 8.61762 11.8957 8.6793 12.0103L9.56049 13.5347C9.61336 13.6316 9.59574 13.7462 9.50762 13.8167L8.57356 14.5393C8.60865 14.832 8.60865 15.1278 8.57356 15.4205L9.50762 16.143C9.54722 16.177 9.57404 16.2234 9.58366 16.2747C9.59327 16.326 9.5851 16.379 9.56049 16.425L8.6793 17.9495C8.62643 18.064 8.51188 18.064 8.40613 18.064L7.31346 17.6234C7.08435 17.782 6.83762 17.9318 6.56445 18.0376L6.39703 19.2008C6.3794 19.3065 6.29128 19.3858 6.16792 19.3858H4.40554C4.30861 19.3858 4.21168 19.3065 4.19405 19.2008L4.02663 18.0376C3.76227 17.923 3.52435 17.782 3.28643 17.6234L2.20257 18.064C2.08801 18.064 1.97346 18.064 1.91178 17.9495L1.03059 16.425C1.00598 16.379 0.99781 16.326 1.00742 16.2747C1.01704 16.2234 1.04386 16.177 1.08346 16.143L2.02633 15.4205C2.00871 15.2707 1.99108 15.1297 1.99108 14.9799C1.99108 14.8301 1.99989 14.6891 2.02633 14.5393L1.09227 13.8167C1.05267 13.7827 1.02585 13.7363 1.01623 13.685C1.00662 13.6337 1.01479 13.5807 1.0394 13.5347L1.92059 12.0103C1.97346 11.8957 2.08801 11.8957 2.20257 11.8957L3.28643 12.3363C3.52435 12.1777 3.76227 12.0279 4.03544 11.9221L4.20287 10.759C4.20842 10.7088 4.23205 10.6623 4.26934 10.6283C4.30664 10.5942 4.35505 10.5749 4.40554 10.5739H6.16792ZM12.3362 12.3363C16.2311 12.3363 19.3857 13.9136 19.3857 15.8611V17.6234H10.8558C11.2491 16.7976 11.4538 15.8946 11.455 14.9799C11.4533 14.0945 11.2609 13.22 10.8911 12.4156C11.3581 12.3627 11.8428 12.3363 12.3362 12.3363ZM5.28673 13.6581C4.55534 13.6581 3.96495 14.2485 3.96495 14.9799C3.96495 15.7112 4.55534 16.3016 5.28673 16.3016C6.02693 16.3016 6.60851 15.7112 6.60851 14.9799C6.60851 14.2485 6.01811 13.6581 5.28673 13.6581Z" fill="#E0EFF9"/>
</svg>
