<svg width="32" height="32" viewBox="0 0 32 32" fill="none" xmlns="http://www.w3.org/2000/svg">
<path d="M13.3333 5.33325C11.9189 5.33325 10.5623 5.89515 9.5621 6.89535C8.56191 7.89554 8.00001 9.2521 8.00001 10.6666C8.00001 12.0811 8.56191 13.4376 9.5621 14.4378C10.5623 15.438 11.9189 15.9999 13.3333 15.9999C14.7478 15.9999 16.1044 15.438 17.1046 14.4378C18.1048 13.4376 18.6667 12.0811 18.6667 10.6666C18.6667 9.2521 18.1048 7.89554 17.1046 6.89535C16.1044 5.89515 14.7478 5.33325 13.3333 5.33325ZM22.6667 15.9999C22.5852 15.9984 22.5058 16.0256 22.4424 16.0768C22.379 16.128 22.3357 16.1999 22.32 16.2799L22.0667 18.0399C21.6667 18.2133 21.28 18.4266 20.9333 18.6666L19.28 17.9999C19.1333 17.9999 18.96 17.9999 18.8667 18.1733L17.5333 20.4799C17.4533 20.6266 17.48 20.7999 17.6133 20.9066L19.0267 21.9999C18.9736 22.4428 18.9736 22.8904 19.0267 23.3333L17.6133 24.4266C17.5534 24.478 17.5128 24.5483 17.4983 24.6258C17.4837 24.7034 17.4961 24.7837 17.5333 24.8533L18.8667 27.1599C18.9467 27.3333 19.12 27.3333 19.28 27.3333L20.9333 26.6666C21.28 26.9066 21.6533 27.1333 22.0667 27.2933L22.32 29.0533C22.3467 29.2133 22.48 29.3333 22.6667 29.3333H25.3333C25.48 29.3333 25.6267 29.2133 25.6533 29.0533L25.9067 27.2933C26.3067 27.1199 26.6667 26.9066 27.0267 26.6666L28.6667 27.3333C28.84 27.3333 29.0133 27.3333 29.1067 27.1599L30.44 24.8533C30.4772 24.7837 30.4896 24.7034 30.4751 24.6258C30.4605 24.5483 30.4199 24.478 30.36 24.4266L28.9333 23.3333C28.96 23.1066 28.9867 22.8933 28.9867 22.6666C28.9867 22.4399 28.9733 22.2266 28.9333 21.9999L30.3467 20.9066C30.4066 20.8552 30.4472 20.7849 30.4617 20.7073C30.4763 20.6297 30.4639 20.5495 30.4267 20.4799L29.0933 18.1733C29.0133 17.9999 28.84 17.9999 28.6667 17.9999L27.0267 18.6666C26.6667 18.4266 26.3067 18.1999 25.8933 18.0399L25.64 16.2799C25.6316 16.204 25.5958 16.1337 25.5394 16.0821C25.483 16.0306 25.4097 16.0014 25.3333 15.9999H22.6667ZM13.3333 18.6666C7.44001 18.6666 2.66667 21.0533 2.66667 23.9999V26.6666H15.5733C14.9783 25.417 14.6686 24.0507 14.6667 22.6666C14.6694 21.327 14.9604 20.0037 15.52 18.7866C14.8133 18.7066 14.08 18.6666 13.3333 18.6666ZM24 20.6666C25.1067 20.6666 26 21.5599 26 22.6666C26 23.7733 25.1067 24.6666 24 24.6666C22.88 24.6666 22 23.7733 22 22.6666C22 21.5599 22.8933 20.6666 24 20.6666Z" fill="url(#paint0_linear_1015_12848)"/>
<defs>
<linearGradient id="paint0_linear_1015_12848" x1="16.5738" y1="5.33325" x2="16.5738" y2="29.3333" gradientUnits="userSpaceOnUse">
<stop stop-color="#53A2D2"/>
<stop offset="1" stop-color="#0077BD"/>
</linearGradient>
</defs>
</svg>
