<svg width="22" height="22" viewBox="0 0 22 22" fill="none" xmlns="http://www.w3.org/2000/svg">
<g clip-path="url(#clip0_1042_2673)">
<path d="M10.5742 4.84619C9.75621 4.84619 8.97174 5.17113 8.39335 5.74952C7.81496 6.32791 7.49002 7.11238 7.49002 7.93035C7.49002 8.74832 7.81496 9.53279 8.39335 10.1112C8.97174 10.6896 9.75621 11.0145 10.5742 11.0145C11.3921 11.0145 12.1766 10.6896 12.755 10.1112C13.3334 9.53279 13.6583 8.74832 13.6583 7.93035C13.6583 7.11238 13.3334 6.32791 12.755 5.74952C12.1766 5.17113 11.3921 4.84619 10.5742 4.84619ZM16.7425 7.04916C16.249 7.04916 15.7908 7.18134 15.3943 7.41926C15.5265 8.67936 15.1564 9.93065 14.3985 10.9088C14.8391 11.7547 15.7203 12.3363 16.7425 12.3363C17.4436 12.3363 18.116 12.0578 18.6118 11.562C19.1075 11.0662 19.3861 10.3938 19.3861 9.69273C19.3861 8.99161 19.1075 8.31921 18.6118 7.82344C18.116 7.32768 17.4436 7.04916 16.7425 7.04916ZM4.40586 7.04916C3.70474 7.04916 3.03234 7.32768 2.53658 7.82344C2.04081 8.31921 1.76229 8.99161 1.76229 9.69273C1.76229 10.3938 2.04081 11.0662 2.53658 11.562C3.03234 12.0578 3.70474 12.3363 4.40586 12.3363C5.42804 12.3363 6.30923 11.7547 6.74982 10.9088C5.98186 9.91675 5.62529 8.66717 5.75408 7.41926C5.35754 7.18134 4.89932 7.04916 4.40586 7.04916ZM16.3019 16.0813C16.3019 14.2573 13.7376 12.7769 10.5742 12.7769C7.41071 12.7769 4.84645 14.2573 4.84645 16.0813V17.6234H16.3019V16.0813ZM21.1484 17.6234V16.3016C21.1484 15.0768 19.483 14.0458 17.2271 13.7462C17.7471 14.3454 18.0643 15.1737 18.0643 16.0813V17.6234H21.1484ZM-8.24928e-05 17.6234H3.08408V16.0813C3.08408 15.1737 3.40131 14.3454 3.92121 13.7462C1.66536 14.0458 -8.24928e-05 15.0768 -8.24928e-05 16.3016V17.6234Z" fill="#E0EFF9"/>
</g>
<defs>
<clipPath id="clip0_1042_2673">
<rect width="21.1485" height="21.1485" fill="white" transform="matrix(-1 0 0 1 21.1484 0)"/>
</clipPath>
</defs>
</svg>
