<svg width="40" height="40" viewBox="0 0 40 40" fill="none" xmlns="http://www.w3.org/2000/svg">
<path d="M20.0007 3.33203C21.494 3.33203 22.9407 3.5287 24.3173 3.89703L20.774 7.4387C20.5052 7.70859 20.2681 8.00831 20.0673 8.33203H20.0007C17.6932 8.33203 15.4376 9.01627 13.519 10.2982C11.6004 11.5802 10.1051 13.4023 9.22206 15.5341C8.33903 17.6659 8.108 20.0117 8.55816 22.2748C9.00832 24.5379 10.1195 26.6167 11.7511 28.2483C13.3827 29.8799 15.4615 30.9911 17.7246 31.4412C19.9877 31.8914 22.3335 31.6603 24.4653 30.7773C26.5971 29.8943 28.4192 28.3989 29.7011 26.4804C30.9831 24.5618 31.6673 22.3062 31.6673 19.9987V19.9321C31.9895 19.7321 32.2868 19.4959 32.559 19.2237L36.1023 15.6821C36.4706 17.0587 36.6673 18.5054 36.6673 19.9987C36.6673 29.2037 29.2057 36.6654 20.0007 36.6654C10.7957 36.6654 3.33398 29.2037 3.33398 19.9987C3.33398 10.7937 10.7957 3.33203 20.0007 3.33203ZM19.3107 11.6937C19.3107 13.1121 19.2407 14.5504 19.3173 15.9671L18.4173 16.8671C18.1077 17.1766 17.8621 17.5442 17.6946 17.9487C17.527 18.3532 17.4408 18.7867 17.4408 19.2246C17.4408 19.6624 17.527 20.0959 17.6946 20.5004C17.8621 20.9049 18.1077 21.2725 18.4173 21.5821C18.7269 21.8916 19.0944 22.1372 19.4989 22.3048C19.9034 22.4723 20.337 22.5586 20.7748 22.5586C21.2126 22.5586 21.6462 22.4723 22.0507 22.3048C22.4552 22.1372 22.8227 21.8916 23.1323 21.5821L24.0323 20.6821C25.449 20.7587 26.8857 20.6887 28.3057 20.6887C28.174 22.2726 27.5921 23.7858 26.6287 25.0499C25.6653 26.314 24.3604 27.2762 22.8681 27.823C21.3758 28.3698 19.7582 28.4785 18.2061 28.1362C16.6541 27.7938 15.2323 27.0148 14.1084 25.891C12.9846 24.7671 12.2055 23.3453 11.8632 21.7933C11.5209 20.2412 11.6296 18.6236 12.1764 17.1313C12.7232 15.6389 13.6854 14.3341 14.9495 13.3707C16.2135 12.4072 17.7268 11.8254 19.3107 11.6937ZM30.8407 3.5437C31.1449 3.66983 31.4049 3.88326 31.5879 4.15705C31.7709 4.43083 31.8687 4.75271 31.869 5.08203V8.13203H34.9173C35.2469 8.1321 35.5691 8.22989 35.8431 8.41303C36.1171 8.59617 36.3307 8.85644 36.4568 9.16094C36.5829 9.46544 36.6159 9.8005 36.5516 10.1238C36.4873 10.447 36.3287 10.744 36.0956 10.9771L30.2007 16.8654C29.8882 17.178 29.4643 17.3536 29.0223 17.3537H25.0007L21.954 20.4021C21.6412 20.7148 21.2171 20.8905 20.7748 20.8905C20.3325 20.8905 19.9084 20.7148 19.5956 20.4021C19.2829 20.0893 19.1072 19.6652 19.1072 19.2229C19.1072 18.7806 19.2829 18.3565 19.5956 18.0437L22.644 14.9987V10.9754C22.6438 10.7563 22.6869 10.5392 22.7706 10.3368C22.8544 10.1343 22.9773 9.95029 23.1323 9.79536L29.024 3.9037C29.2571 3.67048 29.5541 3.51163 29.8774 3.44725C30.2008 3.38287 30.536 3.41586 30.8407 3.54203" fill="#D2E7F7"/>
</svg>
