<svg width="40" height="40" viewBox="0 0 40 40" fill="none" xmlns="http://www.w3.org/2000/svg">
<path fill-rule="evenodd" clip-rule="evenodd" d="M29.9993 3.33203C30.8834 3.33203 31.7313 3.68322 32.3564 4.30834C32.9815 4.93346 33.3327 5.78131 33.3327 6.66537V21.3371C31.273 20.1472 28.8565 19.7305 26.5173 20.1618C24.178 20.5932 22.0691 21.8442 20.5692 23.6904C19.0692 25.5366 18.2765 27.857 18.3334 30.2351C18.3902 32.6131 19.2929 34.893 20.8793 36.6654H9.99935C9.11529 36.6654 8.26745 36.3142 7.64233 35.6891C7.0172 35.064 6.66602 34.2161 6.66602 33.3321V6.66537C6.66602 5.78131 7.0172 4.93346 7.64233 4.30834C8.26745 3.68322 9.11529 3.33203 9.99935 3.33203H29.9993ZM28.3327 23.3321C30.1008 23.3321 31.7965 24.0344 33.0467 25.2847C34.297 26.5349 34.9993 28.2306 34.9993 29.9987C34.9993 31.7668 34.297 33.4625 33.0467 34.7128C31.7965 35.963 30.1008 36.6654 28.3327 36.6654C26.5646 36.6654 24.8689 35.963 23.6186 34.7128C22.3684 33.4625 21.666 31.7668 21.666 29.9987C21.666 28.2306 22.3684 26.5349 23.6186 25.2847C24.8689 24.0344 26.5646 23.3321 28.3327 23.3321ZM28.3327 25.8321C27.9245 25.8321 27.5305 25.982 27.2254 26.2532C26.9203 26.5245 26.7254 26.8983 26.6777 27.3037L26.666 27.4987V29.9987C26.6661 30.4069 26.8159 30.8009 27.0872 31.106C27.3585 31.4111 27.7323 31.606 28.1377 31.6537L28.3327 31.6654H29.9993C30.4241 31.6649 30.8327 31.5023 31.1416 31.2106C31.4505 30.919 31.6364 30.5205 31.6613 30.0964C31.6862 29.6723 31.5482 29.2548 31.2756 28.929C31.0029 28.6032 30.6162 28.3939 30.1944 28.3437L29.9993 28.3321V27.4987C29.9993 27.0567 29.8238 26.6328 29.5112 26.3202C29.1986 26.0076 28.7747 25.8321 28.3327 25.8321ZM14.9993 18.3321H13.3327C12.8907 18.3321 12.4667 18.5076 12.1542 18.8202C11.8416 19.1328 11.666 19.5567 11.666 19.9987C11.666 20.4407 11.8416 20.8647 12.1542 21.1772C12.4667 21.4898 12.8907 21.6654 13.3327 21.6654H14.9993C15.4414 21.6654 15.8653 21.4898 16.1779 21.1772C16.4904 20.8647 16.666 20.4407 16.666 19.9987C16.666 19.5567 16.4904 19.1328 16.1779 18.8202C15.8653 18.5076 15.4414 18.3321 14.9993 18.3321ZM23.3327 11.6654H13.3327C12.9079 11.6659 12.4993 11.8285 12.1904 12.1201C11.8815 12.4117 11.6956 12.8103 11.6707 13.2344C11.6458 13.6584 11.7838 14.076 12.0565 14.4018C12.3291 14.7275 12.7159 14.9369 13.1377 14.9871L13.3327 14.9987H23.3327C23.7575 14.9982 24.1661 14.8356 24.475 14.544C24.7839 14.2524 24.9697 13.8538 24.9946 13.4297C25.0195 13.0057 24.8816 12.5881 24.6089 12.2623C24.3363 11.9366 23.9495 11.7272 23.5277 11.6771L23.3327 11.6654Z" fill="#D2E7F7"/>
</svg>
