<svg width="22" height="22" viewBox="0 0 22 22" fill="none" xmlns="http://www.w3.org/2000/svg">
<path fill-rule="evenodd" clip-rule="evenodd" d="M4.84613 12.337C6.54947 12.337 7.93029 13.6217 7.93029 15.207C7.93029 16.7799 6.94601 18.6154 5.41009 19.2719C5.05233 19.4244 4.63994 19.4244 4.28217 19.2719C2.74626 18.6154 1.76197 16.7799 1.76197 15.207C1.76197 13.6217 3.1428 12.337 4.84613 12.337ZM4.84613 16.3023C4.61243 16.3023 4.38829 16.2095 4.22304 16.0442C4.05778 15.879 3.96495 15.6548 3.96495 15.4211C3.96495 15.1874 4.05778 14.9633 4.22304 14.798C4.38829 14.6328 4.61243 14.5399 4.84613 14.5399C5.07984 14.5399 5.30397 14.6328 5.46923 14.798C5.63448 14.9633 5.72732 15.1874 5.72732 15.4211C5.72732 15.6548 5.63448 15.879 5.46923 16.0442C5.30397 16.2095 5.07984 16.3023 4.84613 16.3023ZM16.3016 1.7627C18.0049 1.7627 19.3857 3.04747 19.3857 4.63273C19.3857 6.20565 18.4015 8.04116 16.8655 8.69765C16.5078 8.85009 16.0954 8.85009 15.7376 8.69765C14.2017 8.04116 13.2174 6.20565 13.2174 4.63273C13.2174 3.04747 14.5982 1.7627 16.3016 1.7627ZM16.3016 5.72804C16.0679 5.72804 15.8437 5.6352 15.6785 5.46995C15.5132 5.30469 15.4204 5.08056 15.4204 4.84685C15.4204 4.61315 15.5132 4.38902 15.6785 4.22376C15.8437 4.05851 16.0679 3.96567 16.3016 3.96567C16.5353 3.96567 16.7594 4.05851 16.9247 4.22376C17.0899 4.38902 17.1828 4.61315 17.1828 4.84685C17.1828 5.08056 17.0899 5.30469 16.9247 5.46995C16.7594 5.6352 16.5353 5.72804 16.3016 5.72804ZM11.2347 4.40626C11.2347 4.23098 11.1651 4.06288 11.0412 3.93894C10.9172 3.815 10.7491 3.74537 10.5739 3.74537H6.93279C4.50864 3.74537 3.58692 6.91148 5.63215 8.21299L14.8053 14.0509C15.7359 14.643 15.3164 16.082 14.2149 16.082H12.1697L12.3636 15.8881C12.4266 15.8272 12.477 15.7542 12.5116 15.6736C12.5462 15.5929 12.5643 15.5062 12.5651 15.4184C12.5658 15.3307 12.549 15.2437 12.5158 15.1624C12.4825 15.0812 12.4334 15.0075 12.3713 14.9455C12.3092 14.8834 12.2354 14.8344 12.1542 14.8012C12.0729 14.768 11.9859 14.7513 11.8981 14.7521C11.8104 14.7529 11.7237 14.7712 11.6431 14.8059C11.5624 14.8406 11.4895 14.8909 11.4286 14.9541L10.1068 16.2759C9.98307 16.3998 9.91355 16.5678 9.91355 16.7429C9.91355 16.918 9.98307 17.086 10.1068 17.2099L11.4286 18.5317C11.4891 18.5966 11.5621 18.6487 11.6431 18.6848C11.7242 18.721 11.8117 18.7404 11.9005 18.742C11.9892 18.7435 12.0774 18.7272 12.1596 18.694C12.2419 18.6607 12.3167 18.6112 12.3794 18.5485C12.4422 18.4857 12.4917 18.411 12.5249 18.3287C12.5582 18.2464 12.5745 18.1582 12.5729 18.0695C12.5713 17.9808 12.5519 17.8933 12.5158 17.8122C12.4797 17.7311 12.4276 17.6582 12.3627 17.5977L12.1688 17.4038H14.2158C16.64 17.4038 17.5617 14.2377 15.5164 12.9362L6.34239 7.09829C5.41274 6.50613 5.8313 5.06715 6.93367 5.06715H10.5739C10.7491 5.06715 10.9172 4.99752 11.0412 4.87358C11.1651 4.74964 11.2347 4.58154 11.2347 4.40626Z" fill="#E0EFF9"/>
</svg>
