<svg width="32" height="32" viewBox="0 0 32 32" fill="none" xmlns="http://www.w3.org/2000/svg">
<path fill-rule="evenodd" clip-rule="evenodd" d="M24.6667 18.6667C22.0893 18.6667 20 20.6107 20 23.0094C20 25.3894 21.4893 28.1667 23.8133 29.1601C24.3547 29.3907 24.9787 29.3907 25.52 29.1601C27.844 28.1667 29.3333 25.3894 29.3333 23.0094C29.3333 20.6107 27.244 18.6667 24.6667 18.6667ZM24.6667 24.6667C25.0203 24.6667 25.3594 24.5263 25.6095 24.2762C25.8595 24.0262 26 23.687 26 23.3334C26 22.9798 25.8595 22.6407 25.6095 22.3906C25.3594 22.1406 25.0203 22.0001 24.6667 22.0001C24.313 22.0001 23.9739 22.1406 23.7239 22.3906C23.4738 22.6407 23.3333 22.9798 23.3333 23.3334C23.3333 23.687 23.4738 24.0262 23.7239 24.2762C23.9739 24.5263 24.313 24.6667 24.6667 24.6667ZM7.33334 2.66675C4.75601 2.66675 2.66667 4.61075 2.66667 7.00941C2.66667 9.38941 4.15601 12.1667 6.48001 13.1601C7.02134 13.3907 7.64534 13.3907 8.18667 13.1601C10.5107 12.1667 12 9.38941 12 7.00941C12 4.61075 9.91067 2.66675 7.33334 2.66675ZM7.33334 8.66675C7.68696 8.66675 8.0261 8.52627 8.27615 8.27622C8.5262 8.02618 8.66667 7.68704 8.66667 7.33341C8.66667 6.97979 8.5262 6.64065 8.27615 6.39061C8.0261 6.14056 7.68696 6.00008 7.33334 6.00008C6.97972 6.00008 6.64058 6.14056 6.39053 6.39061C6.14048 6.64065 6 6.97979 6 7.33341C6 7.68704 6.14048 8.02618 6.39053 8.27622C6.64058 8.52627 6.97972 8.66675 7.33334 8.66675ZM15 6.66675C15 6.40153 15.1054 6.14718 15.2929 5.95964C15.4804 5.7721 15.7348 5.66675 16 5.66675H21.5093C25.1773 5.66675 26.572 10.4574 23.4773 12.4267L9.59734 21.2601C8.18934 22.1561 8.824 24.3334 10.4907 24.3334H13.5853L13.292 24.0401C13.1965 23.9478 13.1204 23.8374 13.0681 23.7154C13.0157 23.5934 12.9882 23.4621 12.9871 23.3293C12.986 23.1966 13.0114 23.0649 13.0617 22.942C13.112 22.8192 13.1864 22.7075 13.2803 22.6137C13.3742 22.5198 13.4859 22.4456 13.6088 22.3954C13.7317 22.3452 13.8634 22.32 13.9962 22.3212C14.129 22.3224 14.2602 22.35 14.3822 22.4025C14.5042 22.455 14.6145 22.5312 14.7067 22.6267L16.7067 24.6267C16.8939 24.8142 16.9991 25.0684 16.9991 25.3334C16.9991 25.5984 16.8939 25.8526 16.7067 26.0401L14.7067 28.0401C14.6151 28.1383 14.5047 28.2171 14.3821 28.2718C14.2594 28.3264 14.127 28.3558 13.9927 28.3582C13.8584 28.3606 13.7251 28.3359 13.6005 28.2856C13.476 28.2353 13.3629 28.1604 13.268 28.0655C13.173 27.9705 13.0981 27.8574 13.0478 27.7329C12.9975 27.6084 12.9728 27.475 12.9752 27.3407C12.9776 27.2064 13.007 27.074 13.0616 26.9514C13.1163 26.8287 13.1951 26.7183 13.2933 26.6267L13.5867 26.3334H10.4893C6.82134 26.3334 5.42667 21.5427 8.52134 19.5734L22.4027 10.7401C23.8093 9.84408 23.176 7.66675 21.508 7.66675H16C15.7348 7.66675 15.4804 7.56139 15.2929 7.37386C15.1054 7.18632 15 6.93196 15 6.66675Z" fill="url(#paint0_linear_1015_12859)"/>
<defs>
<linearGradient id="paint0_linear_1015_12859" x1="2.66667" y1="2.66675" x2="29.333" y2="29.3334" gradientUnits="userSpaceOnUse">
<stop stop-color="#53A2D2"/>
<stop offset="1" stop-color="#0077BD"/>
</linearGradient>
</defs>
</svg>
