<svg width="40" height="40" viewBox="0 0 40 40" fill="none" xmlns="http://www.w3.org/2000/svg">
<path d="M31.6673 3.33203H8.33398C5.50065 3.33203 3.33398 5.4987 3.33398 8.33203V31.6654C3.33398 34.4987 5.50065 36.6654 8.33398 36.6654H31.6673C34.5007 36.6654 36.6673 34.4987 36.6673 31.6654V8.33203C36.6673 5.4987 34.5007 3.33203 31.6673 3.33203ZM13.334 28.3321C13.334 29.3321 12.6673 29.9987 11.6673 29.9987C10.6673 29.9987 10.0007 29.3321 10.0007 28.3321V21.6654C10.0007 20.6654 10.6673 19.9987 11.6673 19.9987C12.6673 19.9987 13.334 20.6654 13.334 21.6654V28.3321ZM21.6673 28.3321C21.6673 29.3321 21.0007 29.9987 20.0007 29.9987C19.0007 29.9987 18.334 29.3321 18.334 28.3321V11.6654C18.334 10.6654 19.0007 9.9987 20.0007 9.9987C21.0007 9.9987 21.6673 10.6654 21.6673 11.6654V28.3321ZM30.0007 28.3321C30.0007 29.3321 29.334 29.9987 28.334 29.9987C27.334 29.9987 26.6673 29.3321 26.6673 28.3321V18.3321C26.6673 17.3321 27.334 16.6654 28.334 16.6654C29.334 16.6654 30.0007 17.3321 30.0007 18.3321V28.3321Z" fill="#D2E7F7"/>
</svg>
