<svg width="32" height="32" viewBox="0 0 32 32" fill="none" xmlns="http://www.w3.org/2000/svg">
<g filter="url(#filter0_d_782_12771)">
<path d="M16.9426 3.05737L28.9426 15.0574C29.7826 15.8974 29.188 17.3334 28 17.3334H26.6666V25.3334C26.6666 26.3942 26.2452 27.4117 25.4951 28.1618C24.7449 28.9119 23.7275 29.3334 22.6666 29.3334H21.3333V20C21.3334 18.9798 20.9435 17.998 20.2436 17.2557C19.5436 16.5134 18.5865 16.0666 17.568 16.0067L17.3333 16H14.6666C13.6058 16 12.5884 16.4215 11.8382 17.1716C11.0881 17.9218 10.6666 18.9392 10.6666 20V29.3334H9.3333C8.27244 29.3334 7.25502 28.9119 6.50488 28.1618C5.75473 27.4117 5.3333 26.3942 5.3333 25.3334V17.3334H3.99997C2.8133 17.3334 2.2173 15.8974 3.0573 15.0574L15.0573 3.05737C15.3073 2.80741 15.6464 2.66699 16 2.66699C16.3535 2.66699 16.6926 2.80741 16.9426 3.05737ZM17.3333 18.6667C17.6869 18.6667 18.0261 18.8072 18.2761 19.0572C18.5262 19.3073 18.6666 19.6464 18.6666 20V29.3334H13.3333V20C13.3333 19.6735 13.4532 19.3583 13.6703 19.1142C13.8873 18.8702 14.1863 18.7143 14.5106 18.676L14.6666 18.6667H17.3333Z" fill="white"/>
</g>
<defs>
<filter id="filter0_d_782_12771" x="0.664307" y="0.666992" width="30.6716" height="30.6664" filterUnits="userSpaceOnUse" color-interpolation-filters="sRGB">
<feFlood flood-opacity="0" result="BackgroundImageFix"/>
<feColorMatrix in="SourceAlpha" type="matrix" values="0 0 0 0 0 0 0 0 0 0 0 0 0 0 0 0 0 0 127 0" result="hardAlpha"/>
<feOffset/>
<feGaussianBlur stdDeviation="1"/>
<feComposite in2="hardAlpha" operator="out"/>
<feColorMatrix type="matrix" values="0 0 0 0 1 0 0 0 0 1 0 0 0 0 1 0 0 0 1 0"/>
<feBlend mode="normal" in2="BackgroundImageFix" result="effect1_dropShadow_782_12771"/>
<feBlend mode="normal" in="SourceGraphic" in2="effect1_dropShadow_782_12771" result="shape"/>
</filter>
</defs>
</svg>
