<svg width="28" height="26" viewBox="0 0 28 26" fill="none" xmlns="http://www.w3.org/2000/svg">
<path d="M27.3319 8.66663C27.3319 8.42468 27.266 8.18731 27.1413 7.97996L23.5293 1.95996C23.2913 1.56641 22.9561 1.24072 22.5559 1.01422C22.1556 0.787708 21.7038 0.668007 21.2439 0.666626H6.75328C5.82262 0.666626 4.94662 1.16263 4.46795 1.96129L0.85595 7.97996C0.73127 8.18731 0.66536 8.42468 0.665283 8.66663C0.665283 10.0066 1.17995 11.2186 1.99862 12.1573V24.6666C1.99862 25.0202 2.13909 25.3594 2.38914 25.6094C2.63919 25.8595 2.97833 26 3.33195 26H13.9986C14.3522 26 14.6914 25.8595 14.9414 25.6094C15.1915 25.3594 15.3319 25.0202 15.3319 24.6666V18H20.6653V24.6666C20.6653 25.0202 20.8058 25.3594 21.0558 25.6094C21.3059 25.8595 21.645 26 21.9986 26H24.6653C25.0189 26 25.358 25.8595 25.6081 25.6094C25.8581 25.3594 25.9986 25.0202 25.9986 24.6666V12.1573C26.8173 11.2186 27.3319 10.0066 27.3319 8.66663ZM24.6439 9.00129C24.5625 9.6454 24.2488 10.2377 23.7618 10.667C23.2748 11.0963 22.6479 11.3332 21.9986 11.3333C20.5279 11.3333 19.3319 10.1373 19.3319 8.66663C19.3319 8.57596 19.2986 8.49596 19.2799 8.41063L19.3066 8.40529L18.2919 3.33329H21.2439L24.6439 9.00129ZM11.3413 8.75329L12.4239 3.33329H15.5719L16.6559 8.75329C16.6093 10.184 15.4386 11.3333 13.9986 11.3333C12.5586 11.3333 11.3879 10.184 11.3413 8.75329ZM6.75328 3.33329H9.70528L8.69195 8.40529L8.71862 8.41063C8.69862 8.49596 8.66528 8.57596 8.66528 8.66663C8.66528 10.1373 7.46928 11.3333 5.99862 11.3333C5.34938 11.3332 4.72246 11.0963 4.23544 10.667C3.74842 10.2377 3.43476 9.6454 3.35328 9.00129L6.75328 3.33329ZM11.3319 19.3333H5.99862V15.3333H11.3319V19.3333Z" fill="#054F7B"/>
</svg>
