<svg width="22" height="28" viewBox="0 0 22 28" fill="none" xmlns="http://www.w3.org/2000/svg">
<path fill-rule="evenodd" clip-rule="evenodd" d="M4.88792 1.99996C4.52148 2.8412 4.33265 3.74904 4.33325 4.66663C4.33325 5.37387 4.6142 6.05215 5.1143 6.55224C5.6144 7.05234 6.29268 7.33329 6.99992 7.33329H14.9999C15.7072 7.33329 16.3854 7.05234 16.8855 6.55224C17.3856 6.05215 17.6666 5.37387 17.6666 4.66663C17.6666 3.71863 17.4693 2.81596 17.1119 1.99996H18.9999C19.7072 1.99996 20.3854 2.28091 20.8855 2.78101C21.3856 3.2811 21.6666 3.95938 21.6666 4.66663V24.6666C21.6666 25.3739 21.3856 26.0521 20.8855 26.5522C20.3854 27.0523 19.7072 27.3333 18.9999 27.3333H2.99992C2.29267 27.3333 1.6144 27.0523 1.1143 26.5522C0.614203 26.0521 0.333252 25.3739 0.333252 24.6666V4.66663C0.333252 3.95938 0.614203 3.2811 1.1143 2.78101C1.6144 2.28091 2.29267 1.99996 2.99992 1.99996H4.88792ZM10.9999 16.6666H6.99992C6.6463 16.6666 6.30716 16.8071 6.05711 17.0571C5.80706 17.3072 5.66659 17.6463 5.66659 18C5.66659 18.3536 5.80706 18.6927 6.05711 18.9428C6.30716 19.1928 6.6463 19.3333 6.99992 19.3333H10.9999C11.3535 19.3333 11.6927 19.1928 11.9427 18.9428C12.1928 18.6927 12.3333 18.3536 12.3333 18C12.3333 17.6463 12.1928 17.3072 11.9427 17.0571C11.6927 16.8071 11.3535 16.6666 10.9999 16.6666ZM14.9999 11.3333H6.99992C6.66008 11.3337 6.33321 11.4638 6.08609 11.6971C5.83898 11.9304 5.69027 12.2492 5.67036 12.5885C5.65044 12.9277 5.76082 13.2618 5.97894 13.5224C6.19706 13.783 6.50646 13.9505 6.84392 13.9906L6.99992 14H14.9999C15.3535 14 15.6927 13.8595 15.9427 13.6094C16.1928 13.3594 16.3333 13.0202 16.3333 12.6666C16.3333 12.313 16.1928 11.9739 15.9427 11.7238C15.6927 11.4738 15.3535 11.3333 14.9999 11.3333ZM10.9999 0.666626C11.5627 0.666639 12.1191 0.785404 12.6329 1.01516C13.1466 1.24492 13.6061 1.58049 13.9813 1.99996C14.5519 2.63729 14.9199 3.45729 14.9879 4.36263L14.9999 4.66663H6.99992C6.99992 3.69996 7.34259 2.81329 7.91325 2.12263L8.01859 1.99996C8.75192 1.18129 9.81592 0.666626 10.9999 0.666626Z" fill="#054F7B"/>
</svg>
