<svg width="28" height="28" viewBox="0 0 28 28" fill="none" xmlns="http://www.w3.org/2000/svg">
<path fill-rule="evenodd" clip-rule="evenodd" d="M22.6667 16.6666C20.0894 16.6666 18.0001 18.6106 18.0001 21.0093C18.0001 23.3893 19.4894 26.1666 21.8134 27.16C22.3547 27.3906 22.9787 27.3906 23.5201 27.16C25.8441 26.1666 27.3334 23.3893 27.3334 21.0093C27.3334 18.6106 25.2441 16.6666 22.6667 16.6666ZM22.6667 22.6666C23.0204 22.6666 23.3595 22.5262 23.6096 22.2761C23.8596 22.0261 24.0001 21.6869 24.0001 21.3333C24.0001 20.9797 23.8596 20.6405 23.6096 20.3905C23.3595 20.1404 23.0204 20 22.6667 20C22.3131 20 21.974 20.1404 21.7239 20.3905C21.4739 20.6405 21.3334 20.9797 21.3334 21.3333C21.3334 21.6869 21.4739 22.0261 21.7239 22.2761C21.974 22.5262 22.3131 22.6666 22.6667 22.6666ZM5.33341 0.666626C2.75608 0.666626 0.666748 2.61063 0.666748 5.00929C0.666748 7.38929 2.15608 10.1666 4.48008 11.16C5.02141 11.3906 5.64541 11.3906 6.18675 11.16C8.51075 10.1666 10.0001 7.38929 10.0001 5.00929C10.0001 2.61063 7.91075 0.666626 5.33341 0.666626ZM5.33341 6.66663C5.68704 6.66663 6.02617 6.52615 6.27622 6.2761C6.52627 6.02605 6.66675 5.68691 6.66675 5.33329C6.66675 4.97967 6.52627 4.64053 6.27622 4.39048C6.02617 4.14044 5.68704 3.99996 5.33341 3.99996C4.97979 3.99996 4.64065 4.14044 4.39061 4.39048C4.14056 4.64053 4.00008 4.97967 4.00008 5.33329C4.00008 5.68691 4.14056 6.02605 4.39061 6.2761C4.64065 6.52615 4.97979 6.66663 5.33341 6.66663ZM13.0001 4.66663C13.0001 4.40141 13.1054 4.14706 13.293 3.95952C13.4805 3.77198 13.7349 3.66663 14.0001 3.66663H19.5094C23.1774 3.66663 24.5721 8.45729 21.4774 10.4266L7.59741 19.26C6.18941 20.156 6.82408 22.3333 8.49075 22.3333H11.5854L11.2921 22.04C11.1966 21.9477 11.1205 21.8373 11.0681 21.7153C11.0158 21.5932 10.9883 21.462 10.9872 21.3292C10.9861 21.1964 11.0114 21.0648 11.0618 20.9419C11.1121 20.819 11.1864 20.7074 11.2804 20.6136C11.3743 20.5197 11.486 20.4455 11.6089 20.3953C11.7318 20.3451 11.8635 20.3198 11.9963 20.321C12.1291 20.3223 12.2603 20.3499 12.3823 20.4024C12.5042 20.4548 12.6145 20.5311 12.7067 20.6266L14.7067 22.6266C14.894 22.8141 14.9992 23.0683 14.9992 23.3333C14.9992 23.5983 14.894 23.8525 14.7067 24.04L12.7067 26.04C12.6152 26.1382 12.5048 26.217 12.3821 26.2717C12.2595 26.3263 12.127 26.3557 11.9928 26.3581C11.8585 26.3605 11.7251 26.3358 11.6006 26.2855C11.4761 26.2352 11.363 26.1603 11.268 26.0653C11.1731 25.9704 11.0982 25.8573 11.0479 25.7328C10.9976 25.6082 10.9729 25.4749 10.9753 25.3406C10.9777 25.2063 11.007 25.0739 11.0617 24.9512C11.1164 24.8286 11.1952 24.7182 11.2934 24.6266L11.5867 24.3333H8.48941C4.82141 24.3333 3.42675 19.5426 6.52141 17.5733L20.4027 8.73996C21.8094 7.84396 21.1761 5.66663 19.5081 5.66663H14.0001C13.7349 5.66663 13.4805 5.56127 13.293 5.37373C13.1054 5.1862 13.0001 4.93184 13.0001 4.66663Z" fill="#054F7B"/>
</svg>
